<?xml version="1.0" encoding="utf-8" standalone="yes"?>
<!DOCTYPE svg PUBLIC "-//W3C//DTD SVG 1.1//EN" "http://www.w3.org/Graphics/SVG/1.1/DTD/svg11.dtd">
<svg width="860" height="795" viewBox="0 0 860 795" style="fill:none;stroke:none;fill-rule:evenodd;clip-rule:evenodd;stroke-linecap:round;stroke-linejoin:round;stroke-miterlimit:1.5;" version="1.1" xmlns="http://www.w3.org/2000/svg" xmlns:xlink="http://www.w3.org/1999/xlink"><style id="fontImports">@import url("https://fonts.googleapis.com/css2?family=Roboto:wght@400;700&amp;display=block");</style><rect id="" x="0" y="0" width="860" height="794" style="fill: #ffffff;"></rect><g id="items" style="isolation: isolate"><g id="blend" style="mix-blend-mode:normal"><g id="g-root-ro_zk1jhonmg26k-fill" data-item-order="999359488" data-item-id="ro_zk1jhonmg26k" data-item-class="Shape Stroke Fill" data-item-index="none" data-renderer-id="0" transform="translate(3, 3)"><g id="ro_zk1jhonmg26k-fill" stroke="none" fill="#f0f0f0"><g><path d="M 22 10L 832 10C 832 10 844 10 844 22L 844 766C 844 766 844 778 832 778L 22 778C 22 778 10 778 10 766L 10 22C 10 22 10 10 22 10"></path></g></g></g><g id="g-root-5.cu_sy_1hbyn70mij4ei-fill" data-item-order="999813382" data-item-id="5.cu_sy_1hbyn70mij4ei" data-item-class="Part Indexed Fill Stroke" data-item-index="5" data-renderer-id="0" transform="translate(211.5164794921875, 171.000244140625)"><g id="5.cu_sy_1hbyn70mij4ei-fill" stroke="none" fill="url(#gradient-44d0ff-453494305)"><g><path d="M 215.483 10C 119.491 10 38.1242 72.6171 10 159.233L 89.9073 185.207C 96.6966 164.293 108.5656 145.667 124.059 130.787L 145.495 160.291C 153.731 151.523 163.595 144.302 174.606 139.113L 153.168 109.6059C 171.729 99.6481 192.947 94 215.484 94L 215.483 10Z"></path></g></g></g><g id="g-root-4.cu_sy_140i4tomij5zf-fill" data-item-order="999813386" data-item-id="4.cu_sy_140i4tomij5zf" data-item-class="Part Indexed Fill Stroke" data-item-index="4" data-renderer-id="0" transform="translate(200.99951171875, 320.2344055175781)"><g id="4.cu_sy_140i4tomij5zf-fill" stroke="none" fill="url(#gradient-fba659-170788768)"><g><path d="M 10 76.7664C 10 148.61 45.0747 212.261 99.0344 251.53L 148.448 183.594C 130.947 170.867 116.694 153.945 107.1666 134.304L 141.863 123.031C 136.138 112.64 132.281 101.0759 130.746 88.79L 96.0494 100.0637C 94.7027 92.5012 94 84.7158 94 76.7664C 94 62.53 96.2537 48.82 100.4239 35.9737L 20.5165 10C 13.6896 31.0254 10 53.465 10 76.7664Z"></path></g></g></g><g id="g-root-3.cu_sy_m9ulf0mij56s-fill" data-item-order="999813390" data-item-id="3.cu_sy_m9ulf0mij56s" data-item-class="Part Indexed Fill Stroke" data-item-index="3" data-renderer-id="0" transform="translate(290.0335693359375, 481.3157043457031)"><g id="3.cu_sy_m9ulf0mij56s-fill" stroke="none" fill="url(#gradient-ffeb38-392015901)"><g><path d="M 136.966 11.6848C 143.119 11.6848 149.136 11.1061 154.966 10.000061L 154.966 46.4668C 177.039 43.4571 197.375 34.9912 214.571 22.4727L 263.966 90.4222C 228.321 116.374 184.432 131.684 136.966 131.684C 89.5156 131.684 45.6388 116.383 10 90.4472L 59.414 22.5115C 76.5993 35.0089 96.9166 43.4604 118.966 46.4668L 118.966 10C 124.797 11.106 130.814 11.6848 136.966 11.6848Z"></path></g></g></g><g id="g-root-2.cu_sy_8z0k4smij3lx-fill" data-item-order="999813394" data-item-id="2.cu_sy_8z0k4smij3lx" data-item-class="Part Indexed Fill Stroke" data-item-index="2" data-renderer-id="0" transform="translate(494.605224609375, 320.2301940917969)"><g id="2.cu_sy_8z0k4smij3lx-fill" stroke="none" fill="url(#gradient-b8e45c-154771520)"><g><path d="M 148.394 76.7698C 148.394 148.597 113.335 212.237 59.3949 251.508L 10 183.558C 27.4766 170.836 41.7104 153.928 51.2279 134.307L 16.5317 123.033C 22.2571 112.643 26.1137 101.0788 27.6488 88.793L 62.345 100.0664C 63.6916 92.5041 64.3943 84.719 64.3943 76.7698C 64.3943 62.5337 62.1407 48.824 57.9707 35.978L 137.877 10C 144.704 31.0264 148.394 53.4672 148.394 76.7698Z"></path></g></g></g><g id="g-root-1.cu_sy_1uoo3qkmij4zq-fill" data-item-order="999813398" data-item-id="1.cu_sy_1uoo3qkmij4zq" data-item-class="Part Indexed Indexed_1 Fill Stroke" data-item-index="1" data-renderer-id="0" transform="translate(416.99951171875, 170.99990844726562)"><g id="1.cu_sy_1uoo3qkmij4zq-fill" stroke="none" fill="url(#gradient-65e5a8-188701211)"><g><path d="M 135.577 185.208L 215.483 159.23C 187.357 72.6154 105.9908 10 10 10L 10.0004 94C 32.5376 94 53.7557 99.6481 72.3163 109.6061L 50.8784 139.113C 61.8891 144.302 71.754 151.523 79.9896 160.292L 101.4257 130.787C 116.919 145.668 128.787 164.293 135.577 185.208Z"></path></g></g></g><g id="g-root-0.cu_sy_18i727gmij47j-fill" data-item-order="999813402" data-item-id="0.cu_sy_18i727gmij47j" data-item-class="Part Indexed_0 Fill Stroke ColorFillBlack ColorStrokeBlack" data-item-index="0" data-renderer-id="0" transform="translate(321, 291.0000305175781)"><defs><linearGradient id="gradient-44d0ff-453494305" x2="0" y2="1"><stop offset="0" stop-color="#6ddafe"></stop><stop offset="1" stop-color="#1AC6FF"></stop></linearGradient><linearGradient id="gradient-fba659-170788768" x2="0" y2="1"><stop offset="0" stop-color="#fcb778"></stop><stop offset="1" stop-color="#F99539"></stop></linearGradient><linearGradient id="gradient-ffeb38-392015901" x2="0" y2="1"><stop offset="0" stop-color="#fff066"></stop><stop offset="1" stop-color="#FFE60A"></stop></linearGradient><linearGradient id="gradient-b8e45c-154771520" x2="0" y2="1"><stop offset="0" stop-color="#c8ea80"></stop><stop offset="1" stop-color="#A8DD38"></stop></linearGradient><linearGradient id="gradient-65e5a8-188701211" x2="0" y2="1"><stop offset="0" stop-color="#85eaba"></stop><stop offset="1" stop-color="#44E095"></stop></linearGradient><linearGradient id="gradient-999999-232777082" x2="0" y2="1"><stop offset="0" stop-color="#cccccc"></stop><stop offset="1" stop-color="#666666"></stop></linearGradient></defs><g id="0.cu_sy_18i727gmij47j-fill" stroke="none" fill="url(#gradient-999999-232777082)"><g><path d="M 202 106C 202 159.019 159.019 202 106 202C 52.9807 202 10 159.019 10 106C 10 52.9807 52.9807 10 106 10C 159.019 10 202 52.9807 202 106Z"></path></g></g></g><g id="g-root-tx_employee_hvwijwmivsav-fill" data-item-order="1000000000" data-item-id="tx_employee_hvwijwmivsav" data-item-class="Label Stroke Indexed Indexed_1 ColorStrokeBlack" data-item-index="1" data-renderer-id="0" transform="translate(537, 111)"><g id="tx_employee_hvwijwmivsav-fill" stroke="none" fill="#484848"><g><text style="font: 20px Roboto, sans-serif; white-space: pre;" font-size="20px" font-family="Roboto, sans-serif"><tspan x="17.17" y="33.63" dominant-baseline="ideographic">Employees show </tspan><tspan x="13.94" y="57.63" dominant-baseline="ideographic">more interest and </tspan><tspan x="25.65" y="81.63" dominant-baseline="ideographic">participation in </tspan><tspan x="45.4" y="105.63" dominant-baseline="ideographic">their work.</tspan></text></g></g></g><g id="g-root-faq_959e5omilyq6-fill" data-item-order="1000000000" data-item-id="faq_959e5omilyq6" data-item-class="Icon Stroke Indexed InsideFill InsideColorFill" data-item-index="5" data-renderer-id="0" transform="translate(291, 225.00003051757812)"></g><g id="g-root-coup_18gydikmiudc6-fill" data-item-order="1000000000" data-item-id="coup_18gydikmiudc6" data-item-class="Icon Stroke Indexed Indexed_1 InsideFill InsideColorFill" data-item-index="1" data-renderer-id="0" transform="translate(495, 225.00003051757812)"></g><g id="g-root-tx_theorgan_1q8ulm4mivt3h-fill" data-item-order="1000000000" data-item-id="tx_theorgan_1q8ulm4mivt3h" data-item-class="Label Stroke Indexed ColorStrokeBlack" data-item-index="3" data-renderer-id="0" transform="translate(333, 663)"><g id="tx_theorgan_1q8ulm4mivt3h-fill" stroke="none" fill="#484848"><g><text style="font: 20px Roboto, sans-serif; white-space: pre;" font-size="20px" font-family="Roboto, sans-serif"><tspan x="16.98" y="33.63" dominant-baseline="ideographic">The organization </tspan><tspan x="16.95" y="57.63" dominant-baseline="ideographic">can charge more </tspan><tspan x="48.05" y="81.63" dominant-baseline="ideographic">for skilled </tspan><tspan x="52.01" y="105.63" dominant-baseline="ideographic">services.</tspan></text></g></g></g><g id="g-root-tx_lessassi_1hbyn70mivshv-fill" data-item-order="1000000000" data-item-id="tx_lessassi_1hbyn70mivshv" data-item-class="Label Stroke Indexed ColorStrokeBlack" data-item-index="5" data-renderer-id="0" transform="translate(123, 111)"><g id="tx_lessassi_1hbyn70mivshv-fill" stroke="none" fill="#484848"><g><text style="font: 20px Roboto, sans-serif; white-space: pre;" font-size="20px" font-family="Roboto, sans-serif"><tspan x="16.95" y="33.63" dominant-baseline="ideographic">Less assistance is </tspan><tspan x="31.85" y="57.63" dominant-baseline="ideographic">required due to </tspan><tspan x="29.36" y="81.63" dominant-baseline="ideographic">improved skills.</tspan></text></g></g></g><g id="g-root-tx_increase_1usey98mivqbw-fill" data-item-order="1000000000" data-item-id="tx_increase_1usey98mivqbw" data-item-class="Label Stroke Indexed Indexed_1" data-item-index="1" data-renderer-id="0" transform="translate(561, 63)"><g id="tx_increase_1usey98mivqbw-fill" stroke="none" fill="#3bc482"><g><text style="font: bold 20px Roboto, sans-serif; white-space: pre;" font-weight="bold" font-size="20px" font-family="Roboto, sans-serif"><tspan x="25.77" y="33.63" dominant-baseline="ideographic">Increased </tspan><tspan x="13.55" y="57.63" dominant-baseline="ideographic">Engagement</tspan></text></g></g></g><g id="g-root-chat_1unf5kcmivqwy-fill" data-item-order="1000000000" data-item-id="chat_1unf5kcmivqwy" data-item-class="Icon Stroke InsideFill InsideColorFill ColorStrokeBlack" data-item-index="none" data-renderer-id="0" transform="translate(369, 339.0000305175781)"></g><g id="g-root-tx_enhanced_1czvzl8mivqix-fill" data-item-order="1000000000" data-item-id="tx_enhanced_1czvzl8mivqix" data-item-class="Label Stroke Indexed" data-item-index="4" data-renderer-id="0" transform="translate(33, 387.0000305175781)"><g id="tx_enhanced_1czvzl8mivqix-fill" stroke="none" fill="#dd8433"><g><text style="font: bold 20px Roboto, sans-serif; white-space: pre;" font-weight="bold" font-size="20px" font-family="Roboto, sans-serif"><tspan x="25.97" y="33.63" dominant-baseline="ideographic">Enhanced </tspan><tspan x="15.85" y="57.63" dominant-baseline="ideographic">Productivity</tspan></text></g></g></g><g id="g-root-tx_improved_58z58mivri8-fill" data-item-order="1000000000" data-item-id="tx_improved_58z58mivri8" data-item-class="Label Stroke Indexed" data-item-index="2" data-renderer-id="0" transform="translate(693, 387.0000305175781)"><g id="tx_improved_58z58mivri8-fill" stroke="none" fill="#93c131"><g><text style="font: bold 20px Roboto, sans-serif; white-space: pre;" font-weight="bold" font-size="20px" font-family="Roboto, sans-serif"><tspan x="13.81" y="33.63" dominant-baseline="ideographic">Improved </tspan><tspan x="12.64" y="57.63" dominant-baseline="ideographic">Retention</tspan></text></g></g></g><g id="g-root-tx_workoutp_deu298mivqx0-fill" data-item-order="1000000000" data-item-id="tx_workoutp_deu298mivqx0" data-item-class="Label Stroke Indexed ColorStrokeBlack" data-item-index="4" data-renderer-id="0" transform="translate(15, 435.0000305175781)"><g id="tx_workoutp_deu298mivqx0-fill" stroke="none" fill="#484848"><g><text style="font: 20px Roboto, sans-serif; white-space: pre;" font-size="20px" font-family="Roboto, sans-serif"><tspan x="12.24" y="33.63" dominant-baseline="ideographic">Work output and </tspan><tspan x="26.75" y="57.63" dominant-baseline="ideographic">efficiency are </tspan><tspan x="32.24" y="81.63" dominant-baseline="ideographic">significantly </tspan><tspan x="41.46" y="105.63" dominant-baseline="ideographic">improved.</tspan></text></g></g></g><g id="g-root-1_4j78bwmic45h-fill" data-item-order="1000000000" data-item-id="1_4j78bwmic45h" data-item-class="Icon Stroke Indexed InsideFill InsideColorFill" data-item-index="4" data-renderer-id="0" transform="translate(231, 423.0000305175781)"></g><g id="g-root-hand_18lbp4cmikk5q-fill" data-item-order="1000000000" data-item-id="hand_18lbp4cmikk5q" data-item-class="Icon Stroke Indexed InsideFill InsideColorFill" data-item-index="2" data-renderer-id="0" transform="translate(555, 423.0000305175781)"></g><g id="g-root-tx_employee_18i727gmivsau-fill" data-item-order="1000000000" data-item-id="tx_employee_18i727gmivsau" data-item-class="Label Stroke Indexed ColorStrokeBlack" data-item-index="2" data-renderer-id="0" transform="translate(657, 435.0000305175781)"><g id="tx_employee_18i727gmivsau-fill" stroke="none" fill="#484848"><g><text style="font: 20px Roboto, sans-serif; white-space: pre;" font-size="20px" font-family="Roboto, sans-serif"><tspan x="27.54" y="33.63" dominant-baseline="ideographic">Employees are </tspan><tspan x="12.43" y="57.63" dominant-baseline="ideographic">more likely to stay </tspan><tspan x="57.31" y="81.63" dominant-baseline="ideographic">with the </tspan><tspan x="12.79" y="105.63" dominant-baseline="ideographic">organization long-</tspan><tspan x="69.23" y="129.63" dominant-baseline="ideographic">term.</tspan></text></g></g></g><g id="g-root-tx_reduceds_v8lz3gmivsw2-fill" data-item-order="1000000000" data-item-id="tx_reduceds_v8lz3gmivsw2" data-item-class="Label Stroke Indexed" data-item-index="5" data-renderer-id="0" transform="translate(129, 63)"><g id="tx_reduceds_v8lz3gmivsw2-fill" stroke="none" fill="#17b0e3"><g><text style="font: bold 20px Roboto, sans-serif; white-space: pre;" font-weight="bold" font-size="20px" font-family="Roboto, sans-serif"><tspan x="14.16" y="33.63" dominant-baseline="ideographic">Reduced Support </tspan><tspan x="63.19" y="57.63" dominant-baseline="ideographic">Needs</tspan></text></g></g></g><g id="g-root-bar_7r1t8mivswa-fill" data-item-order="1000000000" data-item-id="bar_7r1t8mivswa" data-item-class="Icon Stroke Indexed InsideFill InsideColorFill" data-item-index="3" data-renderer-id="0" transform="translate(393, 537)"></g><g id="g-root-tx_higherbi_hxrxt8mivrb7-fill" data-item-order="1000000000" data-item-id="tx_higherbi_hxrxt8mivrb7" data-item-class="Label Stroke Indexed" data-item-index="3" data-renderer-id="0" transform="translate(345, 615)"><g id="tx_higherbi_hxrxt8mivrb7-fill" stroke="none" fill="#e3cd09"><g><text style="font: bold 20px Roboto, sans-serif; white-space: pre;" font-weight="bold" font-size="20px" font-family="Roboto, sans-serif"><tspan x="13.57" y="33.63" dominant-baseline="ideographic">Higher Billable </tspan><tspan x="53.85" y="57.63" dominant-baseline="ideographic">Rates</tspan></text></g></g></g><g id="g-root-tx_benefits_zmk1ykmij5s0-fill" data-item-order="1000000000" data-item-id="tx_benefits_zmk1ykmij5s0" data-item-class="Label Stroke Title ColorFillBlack ColorStrokeBlack" data-item-index="none" data-renderer-id="0" transform="translate(315, 15)"><g id="tx_benefits_zmk1ykmij5s0-fill" stroke="none" fill="#484848"><g><text style="font: bold 20px Roboto, sans-serif; white-space: pre;" font-weight="bold" font-size="20px" font-family="Roboto, sans-serif"><tspan x="15.78" y="33.63" dominant-baseline="ideographic">Benefits of Upskilling</tspan></text></g></g></g><g id="g-root-ro_zk1jhonmg26k-stroke" data-item-order="999359488" data-item-id="ro_zk1jhonmg26k" data-item-class="Shape Stroke Fill" data-item-index="none" data-renderer-id="0" transform="translate(3, 3)"><g id="ro_zk1jhonmg26k-stroke" fill="none" stroke-linecap="round" stroke-linejoin="round" stroke-miterlimit="4" stroke="#484848" stroke-width="2"><g><path d="M 22 10L 832 10C 832 10 844 10 844 22L 844 766C 844 766 844 778 832 778L 22 778C 22 778 10 778 10 766L 10 22C 10 22 10 10 22 10"></path></g></g></g><g id="g-root-5.cu_sy_1hbyn70mij4ei-stroke" data-item-order="999813382" data-item-id="5.cu_sy_1hbyn70mij4ei" data-item-class="Part Indexed Fill Stroke" data-item-index="5" data-renderer-id="0" transform="translate(211.5164794921875, 171.000244140625)"><g id="5.cu_sy_1hbyn70mij4ei-stroke" fill="none" stroke-linecap="round" stroke-linejoin="round" stroke-miterlimit="4" stroke="#ffffff" stroke-width="2"><g><path d="M 215.4834 10C 119.4913 10 38.1242 72.6171 10 159.2335L 89.9073 185.2072C 96.6966 164.2925 108.5656 145.6673 124.0586 130.787L 145.4949 160.2915C 153.7305 151.5227 163.5954 144.3021 174.6061 139.1128L 153.1681 109.6059C 171.7287 99.6481 192.9467 94 215.4839 94L 215.4834 10Z"></path></g></g></g><g id="g-root-4.cu_sy_140i4tomij5zf-stroke" data-item-order="999813386" data-item-id="4.cu_sy_140i4tomij5zf" data-item-class="Part Indexed Fill Stroke" data-item-index="4" data-renderer-id="0" transform="translate(200.99951171875, 320.2344055175781)"><g id="4.cu_sy_140i4tomij5zf-stroke" fill="none" stroke-linecap="round" stroke-linejoin="round" stroke-miterlimit="4" stroke="#ffffff" stroke-width="2"><g><path d="M 10 76.7664C 10 148.6096 45.0747 212.2607 99.0344 251.53L 148.4483 183.5943C 130.9472 170.8674 116.694 153.9447 107.1666 134.3041L 141.8631 123.0305C 136.1378 112.6404 132.2812 101.0759 130.7461 88.79L 96.0494 100.0637C 94.7027 92.5012 94 84.7158 94 76.7664C 94 62.53 96.2537 48.82 100.4239 35.9737L 20.5165 10C 13.6896 31.0254 10 53.465 10 76.7664Z"></path></g></g></g><g id="g-root-3.cu_sy_m9ulf0mij56s-stroke" data-item-order="999813390" data-item-id="3.cu_sy_m9ulf0mij56s" data-item-class="Part Indexed Fill Stroke" data-item-index="3" data-renderer-id="0" transform="translate(290.0335693359375, 481.3157043457031)"><g id="3.cu_sy_m9ulf0mij56s-stroke" fill="none" stroke-linecap="round" stroke-linejoin="round" stroke-miterlimit="4" stroke="#ffffff" stroke-width="2"><g><path d="M 136.9665 11.6848C 143.1187 11.6848 149.1358 11.106 154.9663 10.0001L 154.9663 46.4668C 177.0387 43.4571 197.3749 34.9912 214.5714 22.4727L 263.9663 90.4222C 228.3214 116.3736 184.4316 131.6838 136.966 131.6838C 89.5156 131.6838 45.6388 116.3835 10 90.4472L 59.414 22.5115C 76.5993 35.0089 96.9166 43.4604 118.9663 46.4668L 118.9663 10C 124.7969 11.106 130.8141 11.6848 136.9665 11.6848Z"></path></g></g></g><g id="g-root-2.cu_sy_8z0k4smij3lx-stroke" data-item-order="999813394" data-item-id="2.cu_sy_8z0k4smij3lx" data-item-class="Part Indexed Fill Stroke" data-item-index="2" data-renderer-id="0" transform="translate(494.605224609375, 320.2301940917969)"><g id="2.cu_sy_8z0k4smij3lx-stroke" fill="none" stroke-linecap="round" stroke-linejoin="round" stroke-miterlimit="4" stroke="#ffffff" stroke-width="2"><g><path d="M 148.3943 76.7698C 148.3943 148.5975 113.3347 212.2366 59.3949 251.5079L 10 183.5583C 27.4766 170.8358 41.7104 153.9276 51.2279 134.3069L 16.5317 123.0334C 22.2571 112.6432 26.1137 101.0788 27.6488 88.793L 62.345 100.0664C 63.6916 92.5041 64.3943 84.719 64.3943 76.7698C 64.3943 62.5337 62.1407 48.824 57.9707 35.978L 137.8766 10C 144.7042 31.0264 148.3943 53.4672 148.3943 76.7698Z"></path></g></g></g><g id="g-root-1.cu_sy_1uoo3qkmij4zq-stroke" data-item-order="999813398" data-item-id="1.cu_sy_1uoo3qkmij4zq" data-item-class="Part Indexed Indexed_1 Fill Stroke" data-item-index="1" data-renderer-id="0" transform="translate(416.99951171875, 170.99990844726562)"><g id="1.cu_sy_1uoo3qkmij4zq-stroke" fill="none" stroke-linecap="round" stroke-linejoin="round" stroke-miterlimit="4" stroke="#ffffff" stroke-width="2"><g><path d="M 135.5767 185.2079L 215.4826 159.2298C 187.3573 72.6154 105.9908 10 10 10L 10.0004 94C 32.5376 94 53.7557 99.6481 72.3163 109.6061L 50.8784 139.1129C 61.8891 144.3022 71.754 151.5229 79.9896 160.2916L 101.4257 130.7874C 116.9186 145.6677 128.7875 164.2931 135.5767 185.2079Z"></path></g></g></g><g id="g-root-0.cu_sy_18i727gmij47j-stroke" data-item-order="999813402" data-item-id="0.cu_sy_18i727gmij47j" data-item-class="Part Indexed_0 Fill Stroke ColorFillBlack ColorStrokeBlack" data-item-index="0" data-renderer-id="0" transform="translate(321, 291.0000305175781)"><g id="0.cu_sy_18i727gmij47j-stroke" fill="none" stroke-linecap="round" stroke-linejoin="round" stroke-miterlimit="4" stroke="#ffffff" stroke-width="2"><g><path d="M 202 106C 202 159.0193 159.0193 202 106 202C 52.9807 202 10 159.0193 10 106C 10 52.9807 52.9807 10 106 10C 159.0193 10 202 52.9807 202 106Z"></path></g></g></g><g id="g-root-tx_employee_hvwijwmivsav-stroke" data-item-order="1000000000" data-item-id="tx_employee_hvwijwmivsav" data-item-class="Label Stroke Indexed Indexed_1 ColorStrokeBlack" data-item-index="1" data-renderer-id="0" transform="translate(537, 111)"></g><g id="g-root-faq_959e5omilyq6-stroke" data-item-order="1000000000" data-item-id="faq_959e5omilyq6" data-item-class="Icon Stroke Indexed InsideFill InsideColorFill" data-item-index="5" data-renderer-id="0" transform="translate(291, 225.00003051757812)"><g id="faq_959e5omilyq6-stroke" fill="none" stroke-linecap="round" stroke-linejoin="round" stroke-miterlimit="4" stroke="#ffffff" stroke-width="2"><g><path d="M 19.366001 37.388L 19.366001 25.200001C 19.363342 24.389359 19.683506 23.611008 20.255781 23.036858C 20.828056 22.462706 21.605354 22.139996 22.416 22.139999L 25.464001 22.139999M 19.366001 31.288L 23.939999 31.288M 30.337999 37.388L 30.337999 25.200001C 30.309622 24.092079 30.88447 23.055954 31.839508 22.493639C 32.794548 21.931324 33.979454 21.931324 34.93449 22.493639C 35.889526 23.055954 36.464378 24.092079 36.435997 25.200001L 36.436001 37.400002M 30.337999 31.288L 36.436001 31.288M 48.633999 34.337997C 48.662376 35.445923 48.087528 36.482048 47.132492 37.044361C 46.177452 37.606674 44.992546 37.606674 44.037506 37.044361C 43.08247 36.482048 42.507622 35.445923 42.535999 34.337997L 42.535999 25.200001C 42.507622 24.092079 43.08247 23.055954 44.037506 22.493639C 44.992546 21.931324 46.177452 21.931324 47.132492 22.493639C 48.087528 23.055954 48.662376 24.092079 48.633999 25.200001ZM 45.584 37.388L 48.633999 40.436001M 54.846001 14.724L 13.154 14.724C 11.964378 14.724 11 15.688379 11 16.878L 11 44.658001C 11 45.847622 11.964378 46.812 13.154 46.812L 18.142 46.812C 17.691414 49.150501 16.723072 51.358486 15.308001 53.273998C 21.543999 53.363998 25.49 50.950001 27.856001 46.812L 54.846001 46.812C 56.035622 46.812 57 45.847622 57 44.658001L 57 16.878C 57 15.688379 56.035622 14.724 54.846001 14.724Z"></path></g></g></g><g id="g-root-coup_18gydikmiudc6-stroke" data-item-order="1000000000" data-item-id="coup_18gydikmiudc6" data-item-class="Icon Stroke Indexed Indexed_1 InsideFill InsideColorFill" data-item-index="1" data-renderer-id="0" transform="translate(495, 225.00003051757812)"><g id="coup_18gydikmiudc6-stroke" fill="none" stroke-linecap="round" stroke-linejoin="round" stroke-miterlimit="4" stroke="#ffffff" stroke-width="2"><g><path d="M 38.181999 15.238L 37.599998 14.719999C 37.145935 14.315823 36.8862 13.736894 36.8862 13.129C 36.8862 12.521107 37.145935 11.942178 37.599998 11.538L 37.599998 11.538C 37.990334 11.191546 38.494091 11.000145 39.015999 11L 40.984001 11C 41.505909 11.000145 42.00967 11.191546 42.400002 11.538L 42.400002 11.538C 42.854065 11.942178 43.113804 12.521107 43.113804 13.129C 43.113804 13.736894 42.854065 14.315823 42.400002 14.72L 41.818001 15.238M 15 39C 15 42.313709 17.686291 45 21 45C 24.313709 45 27 42.313709 27 39C 27 35.686295 24.313709 33 21 33C 17.686291 33 15 35.686295 15 39ZM 15.83 35.954002C 18.710327 38.937653 23.136608 39.827209 26.945999 38.188M 54.284 45.287998C 53.485069 43.976749 53.086746 42.460609 53.137997 40.925999L 53.138 39.141998C 53.138 35.752075 50.389923 33.004002 47 33.004002C 43.610077 33.004002 40.862 35.752075 40.862 39.141998L 40.862 40.926003C 40.91325 42.460609 40.514923 43.976749 39.715996 45.287998M 40.862 40.155998C 43.219196 40.152176 45.458691 39.125465 47 37.342003C 48.541309 39.125465 50.780807 40.152176 53.138 40.156002M 41.612 40.120003C 41.889442 42.888142 44.218987 44.995876 47.000999 44.995876C 49.783012 44.995876 52.112556 42.888142 52.389999 40.120003M 21 47C 15.477152 47 11 51.477154 11 57L 31 57C 31 51.477154 26.522848 47 21 47ZM 47 47C 41.477154 47 37 51.477154 37 57L 57 57C 57 51.477154 52.52285 47 47 47ZM 38.599998 28.858C 41.500252 29.450012 44.45937 28.153774 45.990616 25.620554C 47.521862 23.087334 47.294193 19.864792 45.421997 17.57202C 43.549801 15.279248 40.437828 14.411924 37.64962 15.405817C 34.861416 16.39971 32.99976 19.039948 33 22M 31.4 15.142C 28.499752 14.54999 25.540634 15.846228 24.009388 18.379448C 22.478142 20.912666 22.705811 24.13521 24.578005 26.427982C 26.450201 28.720753 29.562174 29.588076 32.35038 28.594183C 35.138588 27.600292 37.000244 24.960054 37 22"></path></g></g></g><g id="g-root-tx_theorgan_1q8ulm4mivt3h-stroke" data-item-order="1000000000" data-item-id="tx_theorgan_1q8ulm4mivt3h" data-item-class="Label Stroke Indexed ColorStrokeBlack" data-item-index="3" data-renderer-id="0" transform="translate(333, 663)"></g><g id="g-root-tx_lessassi_1hbyn70mivshv-stroke" data-item-order="1000000000" data-item-id="tx_lessassi_1hbyn70mivshv" data-item-class="Label Stroke Indexed ColorStrokeBlack" data-item-index="5" data-renderer-id="0" transform="translate(123, 111)"></g><g id="g-root-tx_increase_1usey98mivqbw-stroke" data-item-order="1000000000" data-item-id="tx_increase_1usey98mivqbw" data-item-class="Label Stroke Indexed Indexed_1" data-item-index="1" data-renderer-id="0" transform="translate(561, 63)"></g><g id="g-root-chat_1unf5kcmivqwy-stroke" data-item-order="1000000000" data-item-id="chat_1unf5kcmivqwy" data-item-class="Icon Stroke InsideFill InsideColorFill ColorStrokeBlack" data-item-index="none" data-renderer-id="0" transform="translate(369, 339.0000305175781)"><g id="chat_1unf5kcmivqwy-stroke" fill="none" stroke-linecap="round" stroke-linejoin="round" stroke-miterlimit="4" stroke="#ffffff" stroke-width="2"><g><path d="M 56 12C 58.209141 12 60 13.790861 60 16L 60 40C 60 42.209141 58.209141 44 56 44L 48 44L 48 54L 38 44L 16 44C 13.790861 44 12 42.209141 12 40L 12 16C 12 13.790861 13.790861 12 16 12ZM 103.32 52C 99.747215 45.812473 93.144951 42.000881 86 42.000881C 78.855049 42.000881 72.252792 45.812473 68.68 52M 75.639999 18C 79.42028 21.856739 84.599579 24.02079 90 24C 92.751083 24.009371 95.47451 23.451069 98 22.360001M 74 24C 74 30.627417 79.372581 36 86 36C 92.627419 36 98 30.627417 98 24C 98 17.372583 92.627419 12 86 12C 79.372581 12 74 17.372583 74 24M 47.32 104C 43.747211 97.812477 37.144951 94.000877 30 94.000877C 22.855051 94.000877 16.252789 97.812477 12.68 104M 19.639999 70C 25.456465 75.970985 34.366356 77.708328 42 74.360001M 18 76C 18 82.627419 23.372583 88 30 88C 36.627419 88 42 82.627419 42 76C 42 69.372589 36.627419 64 30 64C 23.372583 64 18 69.372589 18 76M 50 28L 24 28M 32 22L 24 28L 32 34M 60 60C 57.790859 60 56 61.790859 56 64L 56 88C 56 90.209137 57.790859 92 60 92L 68 92L 68 102L 78 92L 100 92C 102.209137 92 104 90.209137 104 88L 104 64C 104 61.790859 102.209137 60 100 60ZM 66 76L 92 76M 84 70L 92 76L 84 82"></path></g></g></g><g id="g-root-tx_enhanced_1czvzl8mivqix-stroke" data-item-order="1000000000" data-item-id="tx_enhanced_1czvzl8mivqix" data-item-class="Label Stroke Indexed" data-item-index="4" data-renderer-id="0" transform="translate(33, 387.0000305175781)"></g><g id="g-root-tx_improved_58z58mivri8-stroke" data-item-order="1000000000" data-item-id="tx_improved_58z58mivri8" data-item-class="Label Stroke Indexed" data-item-index="2" data-renderer-id="0" transform="translate(693, 387.0000305175781)"></g><g id="g-root-tx_workoutp_deu298mivqx0-stroke" data-item-order="1000000000" data-item-id="tx_workoutp_deu298mivqx0" data-item-class="Label Stroke Indexed ColorStrokeBlack" data-item-index="4" data-renderer-id="0" transform="translate(15, 435.0000305175781)"></g><g id="g-root-1_4j78bwmic45h-stroke" data-item-order="1000000000" data-item-id="1_4j78bwmic45h" data-item-class="Icon Stroke Indexed InsideFill InsideColorFill" data-item-index="4" data-renderer-id="0" transform="translate(231, 423.0000305175781)"><g id="1_4j78bwmic45h-stroke" fill="none" stroke-linecap="round" stroke-linejoin="round" stroke-miterlimit="4" stroke="#ffffff" stroke-width="2"><g><path d="M 17.812 49L 15 49C 12.790861 49 11 47.209141 11 45L 11 15C 11 12.790861 12.790861 11 15 11L 53 11C 55.209141 11 57 12.790861 57 15L 57 45C 57 47.209141 55.209141 49 53 49L 49.976002 49M 11 21L 57 21M 18 15.5C 18.276142 15.5 18.5 15.723858 18.5 16C 18.5 16.276142 18.276142 16.5 18 16.5C 17.723858 16.5 17.5 16.276142 17.5 16C 17.5 15.723858 17.723858 15.5 18 15.5M 24 15.5C 24.276142 15.5 24.5 15.723858 24.5 16C 24.5 16.276142 24.276142 16.5 24 16.5C 23.723858 16.5 23.5 16.276142 23.5 16C 23.5 15.723858 23.723858 15.5 24 15.5M 30 15.5C 30.276142 15.5 30.5 15.723858 30.5 16C 30.5 16.276142 30.276142 16.5 30 16.5C 29.723858 16.5 29.5 16.276142 29.5 16C 29.5 15.723858 29.723858 15.5 30 15.5M 22 45C 22 51.627419 27.372583 57 34 57C 40.627419 57 46 51.627419 46 45C 46 38.372581 40.627419 33 34 33C 27.372583 33 22 38.372581 22 45ZM 34 33L 34 27M 31 27L 37 27M 24 33L 26.573999 35.573997M 44 33L 41.426003 35.573997M 35.059998 43.939999L 38.242001 40.757999M 33.646 44.646C 33.841393 44.451099 34.157745 44.451366 34.352806 44.646595C 34.547874 44.841824 34.547874 45.158176 34.352806 45.353405C 34.157745 45.548634 33.841393 45.548901 33.646 45.354C 33.452332 45.157734 33.452332 44.842266 33.646 44.646"></path></g></g></g><g id="g-root-hand_18lbp4cmikk5q-stroke" data-item-order="1000000000" data-item-id="hand_18lbp4cmikk5q" data-item-class="Icon Stroke Indexed InsideFill InsideColorFill" data-item-index="2" data-renderer-id="0" transform="translate(555, 423.0000305175781)"><g id="hand_18lbp4cmikk5q-stroke" fill="none" stroke-linecap="round" stroke-linejoin="round" stroke-miterlimit="4" stroke="#ffffff" stroke-width="2"><g><path d="M 27.444 17.642C 27.443048 21.310947 30.417051 24.285721 34.085999 24.285721C 37.754948 24.285721 40.728951 21.310947 40.728001 17.642C 40.728951 13.973052 37.754948 10.998279 34.085999 10.998279C 30.417051 10.998279 27.443048 13.973052 27.444 17.642M 44.419998 34.506001C 42.856121 30.209627 38.772148 27.350079 34.200001 27.350079C 29.627851 27.350079 25.54388 30.209627 23.98 34.506001M 17.138 57L 13.022 51.854C 11.714089 50.224388 11.000854 48.197559 11 46.108002L 11 35.538002C 11 33.844696 12.372695 32.472 14.066 32.472L 14.066 32.472C 15.758848 32.473103 17.130898 33.845154 17.132 35.538002L 17.132 43.200001M 26.336 56.722L 26.336 50.599998C 26.335695 48.782452 25.797039 47.005722 24.787998 45.493999L 22.454 41.993999C 22.050781 41.323364 21.390717 40.846924 20.627224 40.675407C 19.863731 40.503899 19.063309 40.652256 18.412001 41.085999L 18.411999 41.085999C 17.211044 41.88607 16.794247 43.45549 17.439999 44.745998L 20.204 49.346001M 50.862 57L 54.978001 51.854C 56.285912 50.224388 56.999146 48.197559 57 46.108002L 57 35.538002C 57 33.844696 55.627304 32.472 53.934002 32.472L 53.933998 32.472C 52.24115 32.473103 50.869102 33.845154 50.868 35.538002L 50.868 43.200001M 41.664001 56.722L 41.664001 50.599998C 41.664299 48.782452 42.202957 47.005722 43.211998 45.493999L 45.546001 41.993999C 45.949219 41.323364 46.609287 40.846924 47.37278 40.675407C 48.136272 40.503899 48.936691 40.652256 49.588001 41.085999L 49.588001 41.085999C 50.788956 41.88607 51.20575 43.45549 50.559998 44.745998L 47.796001 49.346001M 29.422001 12.914C 31.690001 17.114 36.720001 17.642 40.728001 17.642"></path></g></g></g><g id="g-root-tx_employee_18i727gmivsau-stroke" data-item-order="1000000000" data-item-id="tx_employee_18i727gmivsau" data-item-class="Label Stroke Indexed ColorStrokeBlack" data-item-index="2" data-renderer-id="0" transform="translate(657, 435.0000305175781)"></g><g id="g-root-tx_reduceds_v8lz3gmivsw2-stroke" data-item-order="1000000000" data-item-id="tx_reduceds_v8lz3gmivsw2" data-item-class="Label Stroke Indexed" data-item-index="5" data-renderer-id="0" transform="translate(129, 63)"></g><g id="g-root-bar_7r1t8mivswa-stroke" data-item-order="1000000000" data-item-id="bar_7r1t8mivswa" data-item-class="Icon Stroke Indexed InsideFill InsideColorFill" data-item-index="3" data-renderer-id="0" transform="translate(393, 537)"><g id="bar_7r1t8mivswa-stroke" fill="none" stroke-linecap="round" stroke-linejoin="round" stroke-miterlimit="4" stroke="#ffffff" stroke-width="2"><g><path d="M 11.714286 56.285713L 56.285713 56.285713M 25.428572 56.285713L 25.428572 11.714286L 11.714286 11.714286L 11.714286 56.285713M 39.142857 56.285713L 39.142857 32.285713L 25.428572 32.285713L 25.428572 56.285713M 52.857143 56.285713L 52.857143 22L 39.142857 22L 39.142857 56.285713"></path></g></g></g><g id="g-root-tx_higherbi_hxrxt8mivrb7-stroke" data-item-order="1000000000" data-item-id="tx_higherbi_hxrxt8mivrb7" data-item-class="Label Stroke Indexed" data-item-index="3" data-renderer-id="0" transform="translate(345, 615)"></g><g id="g-root-tx_benefits_zmk1ykmij5s0-stroke" data-item-order="1000000000" data-item-id="tx_benefits_zmk1ykmij5s0" data-item-class="Label Stroke Title ColorFillBlack ColorStrokeBlack" data-item-index="none" data-renderer-id="0" transform="translate(315, 15)"></g></g></g></svg>