<svg xmlns="http://www.w3.org/2000/svg" width="155" height="25" fill="none"><g fill="currentColor" clip-path="url(#sandbox_svg__a)"><path d="M143.487 8.061 136.065.064l-4.09 4.408 7.422 7.997-7.422 7.997 4.09 4.407 7.422-7.997 7.423 7.997 4.09-4.407-7.422-7.997L155 4.472V4.47L150.91.064z"></path><path d="M120.875 5.707c-3.46 0-6.275 3.033-6.275 6.76 0 3.728 2.815 6.761 6.275 6.761 3.459 0 6.274-3.033 6.274-6.76 0-3.728-2.815-6.76-6.274-6.76m0 19.117c-6.323 0-11.467-5.542-11.467-12.354 0-6.813 5.144-12.357 11.467-12.357 6.322 0 11.466 5.542 11.466 12.355 0 6.812-5.144 12.354-11.466 12.354M15.648 23.937q2.132-1.064 3.198-2.838a7.37 7.37 0 0 0 1.066-3.869q0-2.397-1.238-3.869-1.238-1.47-2.932-2.18-1.693-.707-4.327-1.42-1.6-.405-2.477-.71-.878-.302-1.458-.777-.58-.473-.58-1.182-.001-.44.298-.828.297-.39.972-.624.675-.238 1.708-.238 1.537.001 2.445.59.908.593 1.161 1.437h5.958a10.2 10.2 0 0 0-1.553-3.65q-1.145-1.69-3.167-2.736Q12.698.001 9.877 0c-1.883 0-3.48.343-4.861 1.031q-2.069 1.03-3.152 2.72A6.7 6.7 0 0 0 .783 7.435q0 2.398 1.238 3.868a7.7 7.7 0 0 0 2.932 2.18q1.694.709 4.328 1.42 1.599.406 2.476.71.878.305 1.459.778.579.473.579 1.182 0 .54-.344.997-.345.457-1.081.744-.736.288-1.866.288-1.851 0-2.995-.828-1.143-.829-1.553-2.044H0a12 12 0 0 0 1.834 4.07q1.301 1.875 3.497 3.041 2.194 1.166 5.173 1.165c1.986 0 3.72-.355 5.142-1.065M30.086 6.42h2.195l1.88 7.769h-5.958zm-4.233 17.906 1.097-4.73h8.466l1.098 4.73h5.958L36.514.676H25.853l-5.959 23.65zM58.445 15.282 50.919.676h-7.056v23.648h5.801V9.72l7.526 14.604h7.056V.676h-5.801V12.5M72.232 18.582V6.42h2.666q1.944 0 3.307.744a5.03 5.03 0 0 1 2.086 2.112q.722 1.367.722 3.227 0 1.857-.722 3.226a5.03 5.03 0 0 1-2.086 2.112q-1.363.745-3.307.744h-2.666zm2.697 5.744q3.576 0 6.35-1.572 2.777-1.57 4.312-4.274 1.535-2.701 1.536-5.98 0-3.278-1.536-5.981T81.28 2.245Q78.504.675 74.93.674h-8.498v23.65h8.497zM94.646 9.798V5.743h4.704q1.129 0 1.739.559.612.556.611 1.47 0 .912-.611 1.47-.611.556-1.74.558h-4.703zm0 9.458v-4.73h5.018q1.004 0 1.662.303.659.305.989.828.33.524.329 1.232 0 .71-.329 1.233-.33.523-.989.827-.659.305-1.662.303h-5.018zm5.644 5.068q2.665 0 4.531-.912t2.823-2.466q.956-1.553.957-3.548 0-2.4-1.239-3.851-1.239-1.454-2.995-1.893v-.17q1.442-.438 2.446-1.672 1.003-1.232 1.003-3.227 0-1.621-.831-2.974-.832-1.35-2.462-2.145t-3.92-.794h-11.76v23.65h11.445z"></path></g><defs><clipPath id="sandbox_svg__a"><path fill="#fff" d="M0 0h155v25H0z"></path></clipPath></defs></svg>